<svg xmlns="http://www.w3.org/2000/svg" viewBox="0 0 800 600" width="800" height="600">
  <!-- Gradiente di sfondo -->
  <defs>
    <linearGradient id="cardGradient" x1="0%" y1="0%" x2="100%" y2="100%">
      <stop offset="0%" stop-color="#0f172a" />
      <stop offset="100%" stop-color="#1e293b" />
    </linearGradient>

    <!-- Filtro per effetto glow -->
    <filter id="glow" x="-50%" y="-50%" width="200%" height="200%">
      <feGaussianBlur stdDeviation="3" result="blur" />
      <feComposite in="SourceGraphic" in2="blur" operator="over" />
    </filter>
  </defs>

  <!-- Sfondo principale -->
  <rect width="800" height="600" fill="url(#cardGradient)" />

  <!-- Pattern di punti per lo sfondo -->
  <g opacity="0.1">
    <circle cx="100" cy="100" r="2" fill="#ffffff" />
    <circle cx="200" cy="150" r="2" fill="#ffffff" />
    <circle cx="300" cy="100" r="2" fill="#ffffff" />
    <circle cx="400" cy="200" r="2" fill="#ffffff" />
    <circle cx="500" cy="150" r="2" fill="#ffffff" />
    <circle cx="600" cy="100" r="2" fill="#ffffff" />
    <circle cx="700" cy="200" r="2" fill="#ffffff" />
    <circle cx="100" cy="300" r="2" fill="#ffffff" />
    <circle cx="200" cy="350" r="2" fill="#ffffff" />
    <circle cx="300" cy="300" r="2" fill="#ffffff" />
    <circle cx="400" cy="400" r="2" fill="#ffffff" />
    <circle cx="500" cy="350" r="2" fill="#ffffff" />
    <circle cx="600" cy="300" r="2" fill="#ffffff" />
    <circle cx="700" cy="400" r="2" fill="#ffffff" />
    <circle cx="100" cy="500" r="2" fill="#ffffff" />
    <circle cx="200" cy="550" r="2" fill="#ffffff" />
    <circle cx="300" cy="500" r="2" fill="#ffffff" />
    <circle cx="400" cy="550" r="2" fill="#ffffff" />
    <circle cx="500" cy="500" r="2" fill="#ffffff" />
    <circle cx="600" cy="550" r="2" fill="#ffffff" />
    <circle cx="700" cy="500" r="2" fill="#ffffff" />
  </g>

  <!-- Linee ornamentali per il design -->
  <g opacity="0.2">
    <path d="M0,150 C150,200 250,50 400,100 S650,150 800,100" stroke="#3b82f6" stroke-width="1" fill="none" />
    <path d="M0,250 C150,300 250,150 400,200 S650,250 800,200" stroke="#3b82f6" stroke-width="1" fill="none" />
    <path d="M0,350 C150,400 250,250 400,300 S650,350 800,300" stroke="#3b82f6" stroke-width="1" fill="none" />
    <path d="M0,450 C150,500 250,350 400,400 S650,450 800,400" stroke="#3b82f6" stroke-width="1" fill="none" />
  </g>

  <!-- Elementi animati (Questi verranno animati con CSS) -->
  <g filter="url(#glow)" class="animated-elements">
    <circle cx="200" cy="200" r="3" fill="#3b82f6" class="particle particle1" />
    <circle cx="400" cy="300" r="3" fill="#3b82f6" class="particle particle2" />
    <circle cx="600" cy="400" r="3" fill="#3b82f6" class="particle particle3" />
    <circle cx="300" cy="500" r="3" fill="#3b82f6" class="particle particle4" />
    <circle cx="500" cy="100" r="3" fill="#3b82f6" class="particle particle5" />
  </g>

  <!-- Logo elementi -->
  <g opacity="0.3" transform="translate(400, 300)" class="logo-elements">
    <path d="M-20,-20 L20,20 M-20,20 L20,-20" stroke="#3b82f6" stroke-width="2" />
    <circle cx="0" cy="0" r="30" stroke="#3b82f6" stroke-width="2" fill="none" />
  </g>
</svg>
